<svg width="25" height="26" viewBox="0 0 25 26" fill="none" xmlns="http://www.w3.org/2000/svg">
<path d="M21.7333 9.00503L16.0667 3.23003L17.9333 1.30503C18.4445 0.777946 19.0725 0.514404 19.8173 0.514404C20.5622 0.514404 21.1898 0.777946 21.7 1.30503L23.5667 3.23003C24.0778 3.75711 24.3444 4.39328 24.3667 5.13853C24.3889 5.88378 24.1445 6.51949 23.6333 7.04565L21.7333 9.00503ZM1.33334 25.6082C0.95556 25.6082 0.638671 25.4762 0.382671 25.2122C0.126671 24.9482 -0.000884275 24.6218 4.61361e-06 24.2332V20.3488C4.61361e-06 20.1654 0.033338 19.9876 0.100005 19.8153C0.166671 19.6429 0.266671 19.4885 0.400005 19.3519L14.1333 5.1894L19.8 11.0332L6.06667 25.1957C5.93334 25.3332 5.78356 25.4363 5.61734 25.505C5.45112 25.5738 5.27867 25.6082 5.1 25.6082H1.33334Z" fill="#1D84B5"/>
</svg>
