<svg width="24" height="26" viewBox="0 0 24 26" fill="none" xmlns="http://www.w3.org/2000/svg">
<path d="M4.91669 25.9832C4.13753 25.9832 3.47027 25.7055 2.91494 25.1502C2.35961 24.5948 2.08241 23.928 2.08336 23.1498V4.73316C1.68197 4.73316 1.34528 4.59716 1.07328 4.32516C0.801275 4.05316 0.665747 3.71694 0.666692 3.31649C0.666692 2.9151 0.802692 2.57841 1.07469 2.30641C1.34669 2.03441 1.68291 1.89888 2.08336 1.89983H7.75002C7.75002 1.49844 7.88602 1.16174 8.15802 0.889742C8.43003 0.617742 8.76625 0.482215 9.16669 0.483159H14.8334C15.2347 0.483159 15.5714 0.619159 15.8434 0.891159C16.1154 1.16316 16.251 1.49938 16.25 1.89983H21.9167C22.3181 1.89983 22.6548 2.03583 22.9268 2.30783C23.1988 2.57983 23.3343 2.91605 23.3334 3.31649C23.3334 3.71788 23.1974 4.05458 22.9254 4.32658C22.6534 4.59858 22.3171 4.7341 21.9167 4.73316V23.1498C21.9167 23.929 21.639 24.5962 21.0837 25.1516C20.5284 25.7069 19.8616 25.9841 19.0834 25.9832H4.91669ZM7.75002 18.8998C7.75002 19.3012 7.88602 19.6379 8.15802 19.9099C8.43003 20.1819 8.76625 20.3174 9.16669 20.3165C9.56808 20.3165 9.90478 20.1805 10.1768 19.9085C10.4488 19.6365 10.5843 19.3003 10.5834 18.8998V8.98316C10.5834 8.58177 10.4474 8.24508 10.1754 7.97307C9.90336 7.70108 9.56714 7.56555 9.16669 7.56649C8.7653 7.56649 8.42861 7.70249 8.15661 7.97449C7.88461 8.24649 7.74908 8.58271 7.75002 8.98316V18.8998ZM13.4167 18.8998C13.4167 19.3012 13.5527 19.6379 13.8247 19.9099C14.0967 20.1819 14.4329 20.3174 14.8334 20.3165C15.2347 20.3165 15.5714 20.1805 15.8434 19.9085C16.1154 19.6365 16.251 19.3003 16.25 18.8998V8.98316C16.25 8.58177 16.114 8.24508 15.842 7.97307C15.57 7.70108 15.2338 7.56555 14.8334 7.56649C14.432 7.56649 14.0953 7.70249 13.8233 7.97449C13.5513 8.24649 13.4157 8.58271 13.4167 8.98316V18.8998Z" fill="#FF3333"/>
</svg>
