<svg width="32" height="32" viewBox="0 0 32 32" fill="none" xmlns="http://www.w3.org/2000/svg">
<path d="M28.075 30.8099L18.275 21.0099C17.4 21.7099 16.3937 22.2641 15.2562 22.6724C14.1187 23.0807 12.9083 23.2849 11.625 23.2849C8.44583 23.2849 5.7555 22.1836 3.554 19.9809C1.3525 17.7782 0.251167 15.0879 0.25 11.9099C0.25 8.73075 1.35133 6.04041 3.554 3.83891C5.75667 1.63741 8.447 0.536079 11.625 0.534912C14.8042 0.534912 17.4945 1.63625 19.696 3.83891C21.8975 6.04158 22.9988 8.73191 23 11.9099C23 13.1932 22.7958 14.4037 22.3875 15.5412C21.9792 16.6787 21.425 17.6849 20.725 18.5599L30.5688 28.4037C30.8896 28.7245 31.05 29.1182 31.05 29.5849C31.05 30.0516 30.875 30.4599 30.525 30.8099C30.2042 31.1307 29.7958 31.2912 29.3 31.2912C28.8042 31.2912 28.3958 31.1307 28.075 30.8099ZM11.625 19.7849C13.8125 19.7849 15.6722 19.019 17.204 17.4872C18.7358 15.9553 19.5012 14.0962 19.5 11.9099C19.5 9.72241 18.7341 7.86275 17.2023 6.33091C15.6704 4.79908 13.8113 4.03375 11.625 4.03491C9.4375 4.03491 7.57783 4.80083 6.046 6.33266C4.51417 7.8645 3.74883 9.72358 3.75 11.9099C3.75 14.0974 4.51592 15.9571 6.04775 17.4889C7.57958 19.0207 9.43867 19.7861 11.625 19.7849Z" fill="#1F1F1F"/>
</svg>
